<svg xmlns="http://www.w3.org/2000/svg" viewBox="0 0 103.85 37.56"><defs><style>.cls-1,.cls-2,.cls-3{fill:#fff;}.cls-2,.cls-3{stroke:#000;}.cls-2,.cls-3,.cls-4{stroke-miterlimit:10;}.cls-3{stroke-width:0.5px;}.cls-4{fill:#4973b9;stroke:#231f20;}</style></defs><g id="Layer_2" data-name="Layer 2"><g id="Layer_1-2" data-name="Layer 1"><path class="cls-1" d="M.16,16.08C.16,13.53.08,11.49,0,9.6H3.24L3.4,13h.09a7.79,7.79,0,0,1,7-3.85c4.79,0,8.4,4.06,8.4,10.08,0,7.14-4.34,10.66-9,10.66a7,7,0,0,1-6.11-3.11H3.73V37.56H.16Zm3.57,5.29a8.27,8.27,0,0,0,.16,1.47,5.58,5.58,0,0,0,5.42,4.23c3.81,0,6-3.12,6-7.67,0-4-2.09-7.38-5.9-7.38A5.74,5.74,0,0,0,4,16.49,5.52,5.52,0,0,0,3.73,18Z"/><path class="cls-1" d="M41.45,19.36c0,7.34-5.08,10.53-9.88,10.53-5.37,0-9.51-3.93-9.51-10.21C22.06,13,26.4,9.15,31.9,9.15,37.6,9.15,41.45,13.29,41.45,19.36Zm-15.74.2c0,4.35,2.5,7.63,6,7.63s6-3.24,6-7.71c0-3.36-1.68-7.63-5.94-7.63S25.71,15.79,25.71,19.56Z"/><path class="cls-1" d="M82.74,28.71A13.4,13.4,0,0,1,77,29.85c-6,0-9.88-4.06-9.88-10.12S71.34,9.19,77.82,9.19a12.12,12.12,0,0,1,5,1L82,13a8.38,8.38,0,0,0-4.18-.94c-4.55,0-7,3.36-7,7.5,0,4.59,3,7.42,6.88,7.42a10.26,10.26,0,0,0,4.43-1Z"/><path class="cls-1" d="M87,.33h3.61V12.72h.08a6.73,6.73,0,0,1,2.58-2.55,7.49,7.49,0,0,1,3.69-1c2.67,0,6.93,1.64,6.93,8.49v11.8h-3.61V18.05c0-3.2-1.19-5.91-4.59-5.91a5.19,5.19,0,0,0-4.84,3.61,4.44,4.44,0,0,0-.24,1.72v12H87Z"/><polygon class="cls-2" points="61.21 20.96 50.63 17.95 54.53 0.63 65.11 3.63 61.21 20.96"/><polygon class="cls-3" points="57.87 21.7 47.03 22.77 45.17 4.96 56.01 3.88 57.87 21.7"/><path class="cls-4" d="M44.61,10.5V24c0,3.92,4.43,7.41,9.89,7.41s9.89-3.26,9.89-7.41V10.5Z"/></g></g></svg>