<svg id="Layer_1" data-name="Layer 1" xmlns="http://www.w3.org/2000/svg" viewBox="0 0 105.9 39.4"><defs><style>.cls-1,.cls-4{fill:#231f20;}.cls-2,.cls-3{fill:#fff;}.cls-3,.cls-4{stroke:#231f20;}.cls-3,.cls-4,.cls-5{stroke-miterlimit:10;}.cls-5{fill:#4973b9;stroke:#204f91;}</style></defs><path class="cls-1" d="M420.91,407.7V385.21c0-2.48-.08-4.46-.17-6.43l0-1h5.23l.09,1.85a9,9,0,0,1,6.26-2.3c5.45,0,9.4,4.67,9.4,11.09,0,8-5.19,11.66-10,11.66a8.61,8.61,0,0,1-5.19-1.64v9.31Zm10.26-25.55a4.75,4.75,0,0,0-4.48,3.72,4.87,4.87,0,0,0-.22,1.23v3.4a6.8,6.8,0,0,0,.15,1.3,4.55,4.55,0,0,0,4.43,3.4c3.7,0,5-3.44,5-6.67S434.56,382.15,431.17,382.15Z" transform="translate(-420.7 -368.3)"/><path class="cls-2" d="M421.9,385.21c0-2.54-.08-4.59-.16-6.48H425l.16,3.41h.09a7.79,7.79,0,0,1,7-3.86c4.79,0,8.4,4.06,8.4,10.09,0,7.13-4.34,10.66-9,10.66a7,7,0,0,1-6.11-3.12h-.08V406.7H421.9Zm3.57,5.29a7.43,7.43,0,0,0,.17,1.48,5.55,5.55,0,0,0,5.41,4.22c3.81,0,6-3.11,6-7.67,0-4-2.09-7.38-5.9-7.38a5.76,5.76,0,0,0-5.45,4.47,5.59,5.59,0,0,0-.25,1.48Z" transform="translate(-420.7 -368.3)"/><path class="cls-1" d="M453.31,400c-6.19,0-10.51-4.61-10.51-11.21,0-6.79,4.46-11.54,10.84-11.54,6.21,0,10.55,4.61,10.55,11.21C464.19,396.42,458.55,400,453.31,400Zm.25-18c-3.77,0-5.11,3.61-5.11,6.71,0,3.84,2.11,6.62,5,6.62s5-2.82,5-6.7C458.5,386.32,457.47,382,453.56,382Z" transform="translate(-420.7 -368.3)"/><path class="cls-2" d="M463.19,388.49c0,7.34-5.08,10.54-9.88,10.54-5.37,0-9.51-3.94-9.51-10.21,0-6.64,4.34-10.54,9.84-10.54C459.34,378.28,463.19,382.42,463.19,388.49Zm-15.74.21c0,4.34,2.5,7.62,6,7.62s6-3.23,6-7.7c0-3.37-1.68-7.63-5.94-7.63S447.45,384.93,447.45,388.7Z" transform="translate(-420.7 -368.3)"/><path class="cls-1" d="M498.78,400c-6.51,0-10.88-4.47-10.88-11.13s4.79-11.54,11.66-11.54a13,13,0,0,1,5.45,1.14l.74.37-1.41,4.8-1.1-.62a7.29,7.29,0,0,0-3.68-.82c-4.44,0-6,3.51-6,6.51,0,3.84,2.36,6.42,5.88,6.42a9.38,9.38,0,0,0,4-.9l1.11-.49,1.05,4.64-.68.36A14.41,14.41,0,0,1,498.78,400Z" transform="translate(-420.7 -368.3)"/><path class="cls-2" d="M504.48,397.84a13.37,13.37,0,0,1-5.7,1.15c-6,0-9.88-4.06-9.88-10.13s4.18-10.54,10.66-10.54a12.06,12.06,0,0,1,5,1l-.82,2.79a8.36,8.36,0,0,0-4.18-.95c-4.55,0-7,3.37-7,7.51,0,4.59,2.95,7.42,6.88,7.42a10.23,10.23,0,0,0,4.43-1Z" transform="translate(-420.7 -368.3)"/><path class="cls-1" d="M521,399.58v-12.4c0-3.25-1.21-4.9-3.6-4.9a4.19,4.19,0,0,0-3.89,2.92,3.73,3.73,0,0,0-.19,1.41v13H507.7V368.47h5.61v10.77a7.89,7.89,0,0,1,1.18-.8,8.31,8.31,0,0,1,4.17-1.16c3.66,0,7.93,2.49,7.93,9.49v12.81Z" transform="translate(-420.7 -368.3)"/><path class="cls-2" d="M508.7,369.47h3.61v12.38h.08a6.7,6.7,0,0,1,2.58-2.54,7.4,7.4,0,0,1,3.69-1c2.67,0,6.93,1.64,6.93,8.49v11.81H522v-11.4c0-3.2-1.19-5.9-4.6-5.9a5.2,5.2,0,0,0-4.84,3.6,4.53,4.53,0,0,0-.24,1.73v12H508.7Z" transform="translate(-420.7 -368.3)"/><polygon class="cls-3" points="61.3 21.34 50.88 18.28 54.72 0.63 65.14 3.69 61.3 21.34"/><polygon class="cls-3" points="58.71 22.92 48.04 24.02 46.2 5.88 56.88 4.78 58.71 22.92"/><path class="cls-4" d="M476.09,400c-5.82,0-10.74-3.71-10.74-8.11v-14h21.48v14C486.83,396.43,482.11,400,476.09,400Z" transform="translate(-420.7 -368.3)"/><path class="cls-5" d="M466.35,379.28V392c0,3.71,4.36,7,9.74,7s9.74-3.08,9.74-7V379.28Z" transform="translate(-420.7 -368.3)"/></svg>